# xmcd
#
# Track frame offsets: 
#        150
#        14747
#        30760
#        50492
#        65302
#        86907
#        110105
#        129812
#        142202
#        159557
#        175035
#        188157
#        203087
#
# Disc length: 2926 seconds
#
# Revision: 4
# Processed by: cddbd v1.5.1PL0 Copyright (c) Steve Scherf et al.
# Submitted via: ExactAudioCopy v0.90b4
#
DISCID=b10b6c0d
DTITLE=Various Artist - Mama's Hungry Eyes: A TributeTo Merle Haggard
DYEAR=1994
DGENRE=Country
TTITLE0=Brooks and Dunn - Tonight The Bottle Let Me Down
TTITLE1=Clint Black - I Take A Lot Of Pride In What I Am
TTITLE2=Pam Tillis - Silver Wings
TTITLE3=Randy Travis - Everybody's Had The Blues
TTITLE4=Vince Gill - The Farmer's Daughter
TTITLE5=Diamond Rio, Lee Roy Parnell, Steve Wariner - Workin'Man'sBlue
TTITLE5=s
TTITLE6=Radney Roster - The Running Kind
TTITLE7=Alabama - Sing Me Back Home
TTITLE8=AlanJackson - Trying Not To Love You
TTITLE9=LorrieMorgan - I Threw Away The Rose
TTITLE10=John Anderson and Marty Stuart - Mama Tried
TTITLE11=Willie Nelson - Today I Started Loving You Again
TTITLE12=Emmylou Harris - Mama's Hungry Eyes
EXTD=more info\nMillenniumMusicProjectFormat, syntax as follows:\nTitl
EXTD=e{Subtitle}[info](Lyricist;Composer;Date,Artist,Location)[info]\n
EXTD=corrections to: windking3@yahoo.com
EXTT0=
EXTT1=
EXTT2=
EXTT3=
EXTT4=
EXTT5=
EXTT6=
EXTT7=
EXTT8=
EXTT9=
EXTT10=
EXTT11=
EXTT12=
PLAYORDER=
